<?xml version="1.0" encoding="utf-8"?>
<!-- Generator: Adobe Illustrator 16.0.0, SVG Export Plug-In . SVG Version: 6.00 Build 0)  -->
<!DOCTYPE svg PUBLIC "-//W3C//DTD SVG 1.1//EN" "http://www.w3.org/Graphics/SVG/1.1/DTD/svg11.dtd">
<svg version="1.1" xmlns="http://www.w3.org/2000/svg" xmlns:xlink="http://www.w3.org/1999/xlink" x="0px" y="0px" width="639px"
	 height="666.426px" viewBox="0 0 639 666.426" enable-background="new 0 0 639 666.426" xml:space="preserve">
<g id="Layer_1">
	<rect x="64.588" y="275.152" fill="#828282" width="11.591" height="0.597"/>
	<rect x="64.588" y="275.152" fill="#828282" width="11.591" height="0.597"/>
	<rect x="78.503" y="270.692" fill="#7FC242" width="11.591" height="5.057"/>
	<rect x="78.503" y="270.692" fill="#B5B5B5" width="11.591" height="5.057"/>
	<rect x="92.418" y="268.441" fill="#7FC242" width="11.59" height="7.308"/>
	<rect x="92.418" y="268.441" fill="#828282" width="11.59" height="7.308"/>
	<rect x="106.333" y="266.172" fill="#7FC242" width="11.591" height="9.577"/>
	<rect x="106.333" y="266.172" fill="#828282" width="11.591" height="9.577"/>
	<rect x="120.248" y="263.896" fill="#7FC242" width="11.591" height="11.854"/>
	<rect x="120.248" y="263.896" fill="#828282" width="11.591" height="11.854"/>
	<rect x="134.163" y="261.619" fill="#7FC242" width="11.59" height="14.13"/>
	<rect x="134.163" y="261.619" fill="#828282" width="11.59" height="14.13"/>
	<rect x="148.078" y="259.335" fill="#7FC242" width="11.59" height="16.414"/>
	<rect x="148.078" y="259.335" fill="#828282" width="11.59" height="16.414"/>
	<rect x="161.992" y="257.059" fill="#7FC242" width="11.591" height="18.69"/>
	<rect x="161.992" y="257.059" fill="#828282" width="11.591" height="18.69"/>
	<rect x="175.907" y="254.777" fill="#7FC242" width="11.59" height="20.972"/>
	<rect x="175.907" y="254.777" fill="#828282" width="11.59" height="20.972"/>
	<rect x="189.822" y="252.486" fill="#7FC242" width="11.59" height="23.263"/>
	<rect x="189.822" y="252.486" fill="#828282" width="11.59" height="23.263"/>
	<rect x="203.736" y="250.203" fill="#7FC242" width="11.591" height="25.546"/>
	<rect x="203.736" y="250.203" fill="#828282" width="11.591" height="25.546"/>
	<rect x="217.651" y="247.906" fill="#7FC242" width="11.591" height="27.843"/>
	<rect x="217.651" y="247.906" fill="#828282" width="11.591" height="27.843"/>
	<rect x="231.566" y="245.563" fill="#7FC242" width="11.59" height="30.186"/>
	<rect x="231.566" y="245.563" fill="#828282" width="11.59" height="30.186"/>
	<rect x="245.481" y="243.221" fill="#7FC242" width="11.59" height="32.528"/>
	<rect x="245.481" y="243.221" fill="#828282" width="11.59" height="32.528"/>
	<rect x="259.395" y="240.858" fill="#7FC242" width="11.591" height="34.891"/>
	<rect x="259.395" y="240.858" fill="#828282" width="11.591" height="34.891"/>
	<rect x="273.31" y="238.562" fill="#7FC242" width="11.59" height="37.187"/>
	<rect x="273.31" y="238.562" fill="#828282" width="11.59" height="37.187"/>
	<rect x="287.225" y="236.246" fill="#7FC242" width="11.59" height="39.503"/>
	<rect x="287.225" y="236.246" fill="#828282" width="11.59" height="39.503"/>
	<rect x="301.139" y="233.942" fill="#7FC242" width="11.591" height="41.807"/>
	<rect x="301.139" y="233.942" fill="#828282" width="11.591" height="41.807"/>
	<rect x="315.054" y="231.653" fill="#7FC242" width="11.591" height="44.096"/>
	<rect x="315.054" y="231.653" fill="#828282" width="11.591" height="44.096"/>
	<rect x="328.969" y="229.363" fill="#7FC242" width="11.591" height="46.386"/>
	<rect x="328.969" y="229.363" fill="#828282" width="11.591" height="46.386"/>
	<rect x="342.884" y="227.054" fill="#7FC242" width="11.592" height="48.695"/>
	<rect x="342.884" y="227.054" fill="#828282" width="11.592" height="48.695"/>
	<rect x="356.798" y="224.736" fill="#7FC242" width="11.592" height="51.013"/>
	<rect x="356.798" y="224.736" fill="#828282" width="11.592" height="51.013"/>
	<rect x="370.714" y="220.25" fill="#B5B5B5" width="11.59" height="55.5"/>
	<rect x="370.714" y="220.25" fill="#B5B5B5" width="11.59" height="55.5"/>
	<rect x="384.628" y="215.082" fill="#B5B5B5" width="11.592" height="60.667"/>
	<rect x="384.628" y="215.082" fill="#B5B5B5" width="11.592" height="60.667"/>
	<rect x="398.542" y="207.51" fill="#B5B5B5" width="11.592" height="68.239"/>
	<rect x="398.542" y="207.51" fill="#B5B5B5" width="11.592" height="68.239"/>
	<rect x="412.458" y="200.019" fill="#B5B5B5" width="11.59" height="75.73"/>
	<rect x="412.458" y="200.019" fill="#B5B5B5" width="11.59" height="75.73"/>
	<rect x="426.372" y="193.951" fill="#B5B5B5" width="11.592" height="81.798"/>
	<rect x="426.372" y="193.951" fill="#B5B5B5" width="11.592" height="81.798"/>
	<rect x="440.286" y="187.909" fill="#B5B5B5" width="11.592" height="87.84"/>
	<rect x="440.286" y="187.909" fill="#B5B5B5" width="11.592" height="87.84"/>
	<rect x="454.202" y="180.053" fill="#B5B5B5" width="11.59" height="95.696"/>
	<rect x="454.202" y="180.053" fill="#B5B5B5" width="11.59" height="95.696"/>
	<rect x="468.116" y="172.138" fill="#B5B5B5" width="11.592" height="103.611"/>
	<rect x="468.116" y="172.138" fill="#B5B5B5" width="11.592" height="103.611"/>
	<rect x="482.046" y="162.753" fill="#B5B5B5" width="11.59" height="112.996"/>
	<rect x="482.046" y="162.753" fill="#B5B5B5" width="11.59" height="112.996"/>
	<rect x="495.96" y="152.992" fill="#B5B5B5" width="11.592" height="122.757"/>
	<rect x="495.96" y="152.992" fill="#B5B5B5" width="11.592" height="122.757"/>
	<rect x="509.875" y="143.203" fill="#B5B5B5" width="11.591" height="132.546"/>
	<rect x="509.875" y="143.203" fill="#B5B5B5" width="11.591" height="132.546"/>
	<rect x="523.79" y="131.16" fill="#B5B5B5" width="11.59" height="144.589"/>
	<rect x="523.79" y="131.16" fill="#B5B5B5" width="11.59" height="144.589"/>
	<rect x="537.704" y="117.592" fill="#B5B5B5" width="11.592" height="158.157"/>
	<rect x="537.704" y="117.592" fill="#B5B5B5" width="11.592" height="158.157"/>
	<rect x="551.619" y="102.762" fill="#B5B5B5" width="11.591" height="172.987"/>
	<rect x="551.619" y="102.762" fill="#B5B5B5" width="11.591" height="172.987"/>
	<rect x="565.534" y="86.554" fill="#B5B5B5" width="11.592" height="189.195"/>
	<rect x="565.534" y="86.554" fill="#B5B5B5" width="11.592" height="189.195"/>
	<rect x="579.448" y="69.176" fill="#B5B5B5" width="11.592" height="206.573"/>
	<rect x="579.448" y="69.176" fill="#B5B5B5" width="11.592" height="206.573"/>
	<rect x="593.364" y="51.056" fill="#B5B5B5" width="11.59" height="224.693"/>
	<rect x="593.364" y="51.056" fill="#B5B5B5" width="11.59" height="224.693"/>
	<rect x="607.278" y="32.313" fill="#B5B5B5" width="11.592" height="243.436"/>
	<rect x="607.278" y="32.313" fill="#B5B5B5" width="11.592" height="243.436"/>
	<rect x="62.935" y="605.488" fill="#B5B5B5" width="11.591" height="7.517"/>
	<rect x="62.935" y="605.488" fill="#828282" width="11.591" height="7.517"/>
	<rect x="76.85" y="556.537" fill="#B5B5B5" width="11.59" height="56.468"/>
	<rect x="76.85" y="556.537" fill="#B5B5B5" width="11.59" height="56.468"/>
	<rect x="90.765" y="584.546" fill="#828282" width="11.59" height="28.459"/>
	<rect x="90.765" y="584.546" fill="#828282" width="11.59" height="28.459"/>
	<rect x="104.679" y="584.262" fill="#828282" width="11.591" height="28.743"/>
	<rect x="104.679" y="584.262" fill="#828282" width="11.591" height="28.743"/>
	<rect x="118.594" y="584.19" fill="#828282" width="11.591" height="28.814"/>
	<rect x="118.594" y="584.19" fill="#828282" width="11.591" height="28.814"/>
	<rect x="132.509" y="584.211" fill="#828282" width="11.59" height="28.794"/>
	<rect x="132.509" y="584.211" fill="#828282" width="11.59" height="28.794"/>
	<rect x="146.424" y="584.146" fill="#828282" width="11.591" height="28.859"/>
	<rect x="146.424" y="584.146" fill="#828282" width="11.591" height="28.859"/>
	<rect x="160.338" y="584.224" fill="#828282" width="11.591" height="28.781"/>
	<rect x="160.338" y="584.224" fill="#828282" width="11.591" height="28.781"/>
	<rect x="174.253" y="584.081" fill="#828282" width="11.59" height="28.924"/>
	<rect x="174.253" y="584.081" fill="#828282" width="11.59" height="28.924"/>
	<rect x="188.168" y="584.062" fill="#828282" width="11.59" height="28.942"/>
	<rect x="188.168" y="584.062" fill="#828282" width="11.59" height="28.942"/>
	<rect x="202.083" y="584.101" fill="#828282" width="11.591" height="28.904"/>
	<rect x="202.083" y="584.101" fill="#828282" width="11.591" height="28.904"/>
	<rect x="215.997" y="583.926" fill="#828282" width="11.593" height="29.079"/>
	<rect x="215.997" y="583.926" fill="#828282" width="11.593" height="29.079"/>
	<rect x="229.912" y="583.379" fill="#828282" width="11.59" height="29.626"/>
	<rect x="229.912" y="583.379" fill="#828282" width="11.59" height="29.626"/>
	<rect x="243.828" y="583.373" fill="#828282" width="11.59" height="29.632"/>
	<rect x="243.828" y="583.373" fill="#828282" width="11.59" height="29.632"/>
	<rect x="257.741" y="583.128" fill="#828282" width="11.593" height="29.877"/>
	<rect x="257.741" y="583.128" fill="#828282" width="11.593" height="29.877"/>
	<rect x="271.656" y="583.914" fill="#828282" width="11.59" height="29.091"/>
	<rect x="271.656" y="583.914" fill="#828282" width="11.59" height="29.091"/>
	<rect x="285.572" y="583.681" fill="#828282" width="11.59" height="29.324"/>
	<rect x="285.572" y="583.681" fill="#828282" width="11.59" height="29.324"/>
	<rect x="299.485" y="583.875" fill="#828282" width="11.593" height="29.13"/>
	<rect x="299.485" y="583.875" fill="#828282" width="11.593" height="29.13"/>
	<rect x="313.4" y="584.056" fill="#828282" width="11.592" height="28.949"/>
	<rect x="313.4" y="584.056" fill="#828282" width="11.592" height="28.949"/>
	<rect x="327.314" y="584.037" fill="#828282" width="11.592" height="28.968"/>
	<rect x="327.314" y="584.037" fill="#828282" width="11.592" height="28.968"/>
	<rect x="341.23" y="583.817" fill="#828282" width="11.591" height="29.188"/>
	<rect x="341.23" y="583.817" fill="#828282" width="11.591" height="29.188"/>
	<rect x="355.145" y="583.669" fill="#828282" width="11.592" height="29.336"/>
	<rect x="355.145" y="583.669" fill="#828282" width="11.592" height="29.336"/>
	<rect x="369.061" y="556.227" fill="#B5B5B5" width="11.59" height="56.778"/>
	<rect x="369.061" y="556.227" fill="#B5B5B5" width="11.59" height="56.778"/>
	<rect x="382.975" y="547.643" fill="#B5B5B5" width="11.591" height="65.362"/>
	<rect x="382.975" y="547.643" fill="#B5B5B5" width="11.591" height="65.362"/>
	<rect x="396.889" y="517.189" fill="#B5B5B5" width="11.592" height="95.815"/>
	<rect x="396.889" y="517.189" fill="#B5B5B5" width="11.592" height="95.815"/>
	<rect x="410.805" y="518.19" fill="#B5B5B5" width="11.59" height="94.814"/>
	<rect x="410.805" y="518.19" fill="#B5B5B5" width="11.59" height="94.814"/>
	<rect x="424.719" y="536.289" fill="#B5B5B5" width="11.591" height="76.716"/>
	<rect x="424.719" y="536.289" fill="#B5B5B5" width="11.591" height="76.716"/>
	<rect x="438.633" y="536.535" fill="#B5B5B5" width="11.592" height="76.47"/>
	<rect x="438.633" y="536.535" fill="#B5B5B5" width="11.592" height="76.47"/>
	<rect x="452.549" y="513.613" fill="#B5B5B5" width="11.59" height="99.392"/>
	<rect x="452.549" y="513.613" fill="#B5B5B5" width="11.59" height="99.392"/>
	<rect x="466.463" y="512.859" fill="#B5B5B5" width="11.591" height="100.146"/>
	<rect x="466.463" y="512.859" fill="#B5B5B5" width="11.591" height="100.146"/>
	<rect x="480.393" y="494.274" fill="#B5B5B5" width="11.59" height="118.73"/>
	<rect x="480.393" y="494.274" fill="#B5B5B5" width="11.59" height="118.73"/>
	<rect x="494.307" y="489.518" fill="#B5B5B5" width="11.592" height="123.487"/>
	<rect x="494.307" y="489.518" fill="#B5B5B5" width="11.592" height="123.487"/>
	<rect x="508.221" y="489.162" fill="#B5B5B5" width="11.592" height="123.843"/>
	<rect x="508.221" y="489.162" fill="#B5B5B5" width="11.592" height="123.843"/>
	<rect x="522.137" y="460.568" fill="#B5B5B5" width="11.59" height="152.437"/>
	<rect x="522.137" y="460.568" fill="#B5B5B5" width="11.59" height="152.437"/>
	<rect x="536.051" y="441.403" fill="#B5B5B5" width="11.592" height="171.602"/>
	<rect x="536.051" y="441.403" fill="#B5B5B5" width="11.592" height="171.602"/>
	<rect x="549.965" y="425.326" fill="#B5B5B5" width="11.592" height="187.679"/>
	<rect x="549.965" y="425.326" fill="#B5B5B5" width="11.592" height="187.679"/>
	<rect x="563.881" y="407.954" fill="#B5B5B5" width="11.592" height="205.051"/>
	<rect x="563.881" y="407.954" fill="#B5B5B5" width="11.592" height="205.051"/>
	<rect x="577.795" y="393.136" fill="#B5B5B5" width="11.592" height="219.869"/>
	<rect x="577.795" y="393.136" fill="#B5B5B5" width="11.592" height="219.869"/>
	<rect x="591.711" y="383.673" fill="#B5B5B5" width="11.59" height="229.332"/>
	<rect x="591.711" y="383.673" fill="#B5B5B5" width="11.59" height="229.332"/>
	<rect x="605.625" y="375.892" fill="#B5B5B5" width="11.592" height="237.113"/>
	<rect x="605.625" y="375.892" fill="#B5B5B5" width="11.592" height="237.113"/>
	<text transform="matrix(1 0 0 1 114.1201 37.02)" fill="#333333" font-family="'Roboto-Bold'" font-size="17.3213">Cumulative Elapsed Time for 20 Frames (minutes)</text>
	<text transform="matrix(1 0 0 1 160.3066 370.0391)" fill="#333333" font-family="'Roboto-Bold'" font-size="17.3213">Elapsed Time for 20 Frames (minutes)</text>
	<text transform="matrix(1 0 0 1 462.3438 294.499)" fill="#A3A3A3" font-family="'Roboto-Regular'" font-size="12.9909">blob tracking</text>
	<text transform="matrix(1 0 0 1 178.8374 294.499)" fill="#606060" font-family="'Roboto-Regular'" font-size="12.9909">image recognition</text>
	<text transform="matrix(1 0 0 1 39.7139 294.499)" fill="#A3A3A3" font-family="'Roboto-Regular'" font-size="12.9909">artifact removal</text>
	<text transform="matrix(1 0 0 1 39.4736 311.8203)" fill="#606060" font-family="'Roboto-Regular'" font-size="12.9909">file loading</text>
	<text transform="matrix(1 0 0 1 462.3438 629.8574)" fill="#A3A3A3" font-family="'Roboto-Regular'" font-size="12.9909">blob tracking</text>
	<text transform="matrix(1 0 0 1 178.8374 629.8574)" fill="#606060" font-family="'Roboto-Regular'" font-size="12.9909">image recognition</text>
	<text transform="matrix(1 0 0 1 39.7139 629.8574)" fill="#A3A3A3" font-family="'Roboto-Regular'" font-size="12.9909">artifact removal</text>
	<text transform="matrix(1 0 0 1 39.4736 647.1787)" fill="#606060" font-family="'Roboto-Regular'" font-size="12.9909">file loading</text>
	<line fill="none" x1="0.5" y1="6.274" x2="618.87" y2="6.274"/>
	<text transform="matrix(1 0 0 1 21.6807 65.978)" fill="#333333" font-family="'Roboto-Bold'" font-size="12.9909">50</text>
	<text transform="matrix(1 0 0 1 21.6807 108.8188)" fill="#333333" font-family="'Roboto-Bold'" font-size="12.9909">40</text>
	<text transform="matrix(1 0 0 1 21.6807 151.6597)" fill="#333333" font-family="'Roboto-Bold'" font-size="12.9909">30</text>
	<text transform="matrix(1 0 0 1 21.6807 194.5005)" fill="#333333" font-family="'Roboto-Bold'" font-size="12.9909">20</text>
	<text transform="matrix(1 0 0 1 21.6807 237.3413)" fill="#333333" font-family="'Roboto-Bold'" font-size="12.9909">10</text>
	<text transform="matrix(1 0 0 1 29.1338 280.1816)" fill="#333333" font-family="'Roboto-Bold'" font-size="12.9909">0</text>
	<text transform="matrix(1 0 0 1 29.1338 401.4316)" fill="#333333" font-family="'Roboto-Bold'" font-size="12.9909">4</text>
	<text transform="matrix(1 0 0 1 29.1338 455.5596)" fill="#333333" font-family="'Roboto-Bold'" font-size="12.9909">3</text>
	<text transform="matrix(1 0 0 1 29.1338 509.6885)" fill="#333333" font-family="'Roboto-Bold'" font-size="12.9909">2</text>
	<text transform="matrix(1 0 0 1 29.1338 563.8174)" fill="#333333" font-family="'Roboto-Bold'" font-size="12.9909">1</text>
	<text transform="matrix(1 0 0 1 29.1338 616.5029)" fill="#333333" font-family="'Roboto-Bold'" font-size="12.9909">0</text>
	<g>
		<g>
			<line fill="none" stroke="#D8D8D8" stroke-miterlimit="10" x1="47.652" y1="61.559" x2="48.652" y2="61.559"/>
			
				<line fill="none" stroke="#D8D8D8" stroke-miterlimit="10" stroke-dasharray="1.9973,1.9973" x1="50.649" y1="61.559" x2="616.871" y2="61.559"/>
			<line fill="none" stroke="#D8D8D8" stroke-miterlimit="10" x1="617.87" y1="61.559" x2="618.87" y2="61.559"/>
		</g>
	</g>
	<g>
		<g>
			<line fill="none" stroke="#D8D8D8" stroke-miterlimit="10" x1="47.652" y1="104.397" x2="48.652" y2="104.397"/>
			
				<line fill="none" stroke="#D8D8D8" stroke-miterlimit="10" stroke-dasharray="1.9973,1.9973" x1="50.649" y1="104.397" x2="616.871" y2="104.397"/>
			<line fill="none" stroke="#D8D8D8" stroke-miterlimit="10" x1="617.87" y1="104.397" x2="618.87" y2="104.397"/>
		</g>
	</g>
	<g>
		<g>
			<line fill="none" stroke="#D8D8D8" stroke-miterlimit="10" x1="47.652" y1="147.235" x2="48.652" y2="147.235"/>
			
				<line fill="none" stroke="#D8D8D8" stroke-miterlimit="10" stroke-dasharray="1.9973,1.9973" x1="50.649" y1="147.235" x2="616.871" y2="147.235"/>
			<line fill="none" stroke="#D8D8D8" stroke-miterlimit="10" x1="617.87" y1="147.235" x2="618.87" y2="147.235"/>
		</g>
	</g>
	<g>
		<g>
			<line fill="none" stroke="#D8D8D8" stroke-miterlimit="10" x1="47.652" y1="396.203" x2="48.652" y2="396.203"/>
			
				<line fill="none" stroke="#D8D8D8" stroke-miterlimit="10" stroke-dasharray="1.9973,1.9973" x1="50.649" y1="396.203" x2="616.871" y2="396.203"/>
			<line fill="none" stroke="#D8D8D8" stroke-miterlimit="10" x1="617.87" y1="396.203" x2="618.87" y2="396.203"/>
		</g>
	</g>
	<g>
		<g>
			<line fill="none" stroke="#D8D8D8" stroke-miterlimit="10" x1="47.652" y1="450.409" x2="48.652" y2="450.409"/>
			
				<line fill="none" stroke="#D8D8D8" stroke-miterlimit="10" stroke-dasharray="1.9973,1.9973" x1="50.649" y1="450.409" x2="616.871" y2="450.409"/>
			<line fill="none" stroke="#D8D8D8" stroke-miterlimit="10" x1="617.87" y1="450.409" x2="618.87" y2="450.409"/>
		</g>
	</g>
	<g>
		<g>
			<line fill="none" stroke="#D8D8D8" stroke-miterlimit="10" x1="47.652" y1="504.603" x2="48.652" y2="504.603"/>
			
				<line fill="none" stroke="#D8D8D8" stroke-miterlimit="10" stroke-dasharray="1.9973,1.9973" x1="50.649" y1="504.603" x2="616.871" y2="504.603"/>
			<line fill="none" stroke="#D8D8D8" stroke-miterlimit="10" x1="617.87" y1="504.603" x2="618.87" y2="504.603"/>
		</g>
	</g>
	<g>
		<g>
			<line fill="none" stroke="#D8D8D8" stroke-miterlimit="10" x1="47.652" y1="558.805" x2="48.652" y2="558.805"/>
			
				<line fill="none" stroke="#D8D8D8" stroke-miterlimit="10" stroke-dasharray="1.9973,1.9973" x1="50.649" y1="558.805" x2="616.871" y2="558.805"/>
			<line fill="none" stroke="#D8D8D8" stroke-miterlimit="10" x1="617.87" y1="558.805" x2="618.87" y2="558.805"/>
		</g>
	</g>
	<g>
		<g>
			<line fill="none" stroke="#D8D8D8" stroke-miterlimit="10" x1="47.652" y1="613.005" x2="48.652" y2="613.005"/>
			
				<line fill="none" stroke="#D8D8D8" stroke-miterlimit="10" stroke-dasharray="1.9973,1.9973" x1="50.649" y1="613.005" x2="616.871" y2="613.005"/>
			<line fill="none" stroke="#D8D8D8" stroke-miterlimit="10" x1="617.87" y1="613.005" x2="618.87" y2="613.005"/>
		</g>
	</g>
	<g>
		<g>
			<line fill="none" stroke="#D8D8D8" stroke-miterlimit="10" x1="47.652" y1="232.911" x2="48.652" y2="232.911"/>
			
				<line fill="none" stroke="#D8D8D8" stroke-miterlimit="10" stroke-dasharray="1.9973,1.9973" x1="50.649" y1="232.911" x2="616.871" y2="232.911"/>
			<line fill="none" stroke="#D8D8D8" stroke-miterlimit="10" x1="617.87" y1="232.911" x2="618.87" y2="232.911"/>
		</g>
	</g>
	<g>
		<g>
			<line fill="none" stroke="#D8D8D8" stroke-miterlimit="10" x1="47.652" y1="275.749" x2="48.652" y2="275.749"/>
			
				<line fill="none" stroke="#D8D8D8" stroke-miterlimit="10" stroke-dasharray="1.9973,1.9973" x1="50.649" y1="275.749" x2="616.871" y2="275.749"/>
			<line fill="none" stroke="#D8D8D8" stroke-miterlimit="10" x1="617.87" y1="275.749" x2="618.87" y2="275.749"/>
		</g>
	</g>
	<g>
		<g>
			<line fill="none" stroke="#D8D8D8" stroke-miterlimit="10" x1="47.652" y1="190.073" x2="48.652" y2="190.073"/>
			
				<line fill="none" stroke="#D8D8D8" stroke-miterlimit="10" stroke-dasharray="1.9973,1.9973" x1="50.649" y1="190.073" x2="616.871" y2="190.073"/>
			<line fill="none" stroke="#D8D8D8" stroke-miterlimit="10" x1="617.87" y1="190.073" x2="618.87" y2="190.073"/>
		</g>
	</g>
</g>
<g id="Layer_2">
</g>
</svg>
